<?xml version="1.0" encoding="UTF-8"?>
<svg version="1.1" xmlns="http://www.w3.org/2000/svg" width="1278" height="392">
<path d="M0 0 C1.45274071 -0.01270432 1.45274071 -0.01270432 2.93482971 -0.02566528 C6.11399709 -0.04893386 9.29267801 -0.05006026 12.47192383 -0.04882812 C14.69053845 -0.0559329 16.90915124 -0.06363237 19.12776184 -0.07189941 C23.76686726 -0.08531876 28.40580252 -0.08692308 33.04492188 -0.08105469 C38.99032205 -0.07514363 44.93490986 -0.10582075 50.8801527 -0.14617157 C55.4569387 -0.17200557 60.0335275 -0.1749302 64.61037636 -0.17127991 C66.80284998 -0.1729734 68.99533248 -0.18263782 71.1877346 -0.20042419 C74.24941167 -0.22254145 77.30942276 -0.21295016 80.37109375 -0.1953125 C81.27562286 -0.20857574 82.18015198 -0.22183899 83.11209106 -0.23550415 C87.59932862 -0.17539311 89.40578776 -0.04522648 93.03022766 2.83337402 C96.12062983 6.90912426 96.50691194 9.2653533 95.99145508 14.41992188 C94.21864947 17.39664771 92.13537493 19.84796195 88.99145508 21.41992188 C86.06369993 21.52192413 83.15889961 21.56356288 80.23071289 21.56176758 C79.32322296 21.565242 78.41573303 21.56871643 77.48074341 21.57229614 C75.5054918 21.57965988 73.53023187 21.58500196 71.55496979 21.58858681 C68.42783363 21.59574144 65.30085539 21.61140103 62.17376709 21.62992859 C53.28098736 21.68244164 44.38829273 21.73037074 35.49536133 21.74584961 C30.05937395 21.75593287 24.62378148 21.78526857 19.18795013 21.82716942 C17.11637103 21.83948163 15.04473614 21.84460028 12.97312164 21.84237099 C10.07157803 21.84001727 7.17116604 21.86219091 4.26977539 21.88989258 C3.41551971 21.88329117 2.56126404 21.87668976 1.68112183 21.86988831 C-3.64469856 21.9532758 -6.86905986 22.7492521 -11.00854492 26.41992188 C-12.28225581 28.50709656 -12.28225581 28.50709656 -12.81152344 30.88500977 C-13.06159653 31.78110458 -13.31166962 32.6771994 -13.56932068 33.60044861 C-13.94335777 35.07536522 -13.94335777 35.07536522 -14.32495117 36.58007812 C-14.75500206 38.15983177 -14.75500206 38.15983177 -15.19374084 39.77149963 C-16.15308611 43.31566626 -17.08003748 46.86756317 -18.00854492 50.41992188 C-18.68705237 52.94121776 -19.36794123 55.46187381 -20.05102539 57.98193359 C-22.16949747 65.81541232 -24.24713851 73.65951399 -26.32289505 81.50439835 C-28.30280153 88.98055575 -30.2934008 96.45388096 -32.28198242 103.92773438 C-32.51222422 104.79340593 -32.74246601 105.65907749 -32.97968483 106.55098152 C-39.62787855 131.54439044 -46.35862524 156.51564218 -53.11328125 181.48046875 C-53.86853954 184.27226711 -54.62377158 187.06407256 -55.37896538 189.85588837 C-55.87844583 191.70228915 -56.37800429 193.54866884 -56.87764168 195.39502716 C-60.0137023 206.98675784 -63.12247356 218.58528575 -66.19743347 230.19337463 C-67.72016442 235.94126603 -69.25278766 241.68650389 -70.78816319 247.43102932 C-71.99820133 251.96171269 -73.19521481 256.4955588 -74.38203716 261.03237534 C-75.10969597 263.80060289 -75.85027262 266.56525187 -76.59449577 269.32906723 C-77.08844952 271.17866802 -77.56687286 273.03239531 -78.04457092 274.88626099 C-81.00564556 285.78646302 -85.50755603 294.92115997 -95.00854492 301.41992188 C-105.0147089 307.03574782 -116.45702603 305.9838874 -127.54101562 305.9375 C-129.72007209 305.9429263 -131.89912488 305.95005181 -134.07817078 305.95874023 C-139.97038857 305.97691046 -145.86232491 305.96993345 -151.75454736 305.95722389 C-157.9283473 305.94707004 -164.10212376 305.9564956 -170.27592468 305.96276855 C-180.63646762 305.97003526 -190.9968963 305.96047997 -201.35742188 305.94140625 C-213.33474253 305.91961066 -225.31163363 305.92671227 -237.2889474 305.94871187 C-247.58134583 305.96685937 -257.87366234 305.96942821 -268.16607159 305.9589572 C-274.30972233 305.95272242 -280.45324508 305.95188691 -286.59688759 305.96510315 C-292.36805674 305.97665245 -298.13887441 305.9686524 -303.91000557 305.94552612 C-306.02800157 305.9402354 -308.14602713 305.94175898 -310.26401138 305.95057678 C-313.15409412 305.9615005 -316.04304891 305.94780697 -318.93305969 305.92785645 C-320.19127493 305.94124078 -320.19127493 305.94124078 -321.47490865 305.9548955 C-326.76841527 305.88396655 -329.81093871 304.94122959 -334.00854492 301.41992188 C-335.73724271 297.9625263 -335.49821388 294.2001662 -335.00854492 290.41992188 C-333.21460824 287.54962319 -332.02591216 285.92860549 -329.00854492 284.41992188 C-326.17518242 284.3183387 -323.36607728 284.27827978 -320.5322876 284.28189087 C-319.64459773 284.27906959 -318.75690786 284.27624831 -317.8423183 284.27334154 C-314.84986691 284.26496849 -311.8574524 284.26365497 -308.86499023 284.26220703 C-306.72667333 284.25754078 -304.58835742 284.25239753 -302.45004272 284.24681091 C-297.83595116 284.23551421 -293.22186612 284.22708762 -288.6077652 284.22069168 C-281.31366047 284.21003083 -274.01960244 284.18979105 -266.7255249 284.16757202 C-245.98069395 284.10558356 -225.23586546 284.05162523 -204.4909668 284.01855469 C-193.04090597 284.0002211 -181.59092304 283.97130039 -170.14091945 283.93054998 C-164.07876173 283.90945762 -158.01670227 283.89401956 -151.95450592 283.89174271 C-146.25162132 283.88959838 -140.54894126 283.87375077 -134.84611893 283.84735298 C-132.75232444 283.84015017 -130.6585052 283.83806376 -128.56470108 283.84145546 C-125.70713679 283.84534509 -122.85022736 283.8309117 -119.99273682 283.81192017 C-119.16335138 283.81744986 -118.33396594 283.82297956 -117.4794476 283.82867682 C-111.78429794 283.76330262 -107.50938992 282.86970047 -103.27490234 278.72167969 C-101.50249275 275.50011083 -100.6350608 272.1327019 -99.74682617 268.59179688 C-99.45354683 267.46828827 -99.45354683 267.46828827 -99.15434265 266.32208252 C-98.53465824 263.94015553 -97.92770287 261.5551961 -97.32104492 259.16992188 C-96.90196001 257.54991346 -96.48204727 255.93011896 -96.0612793 254.31054688 C-95.034095 250.34941908 -94.01831062 246.38552412 -93.00854492 242.41992188 C-94.03891436 242.41753352 -95.06928379 242.41514517 -96.13087654 242.41268444 C-121.19368813 242.35390873 -146.25640343 242.27803784 -171.31910896 242.18420696 C-183.43921159 242.1392276 -195.55928469 242.09981783 -207.67944336 242.07348633 C-218.2424813 242.05052363 -228.80542597 242.0171449 -239.36838996 241.97122031 C-244.96220213 241.94726487 -250.55592178 241.92855127 -256.14978409 241.92230797 C-261.41436707 241.91626768 -266.67871329 241.89630585 -271.94320869 241.86564636 C-273.87574051 241.85684923 -275.80830324 241.85314701 -277.74085426 241.85491371 C-280.37960391 241.85656442 -283.01763007 241.83988457 -285.65628052 241.81864929 C-286.80318586 241.82592066 -286.80318586 241.82592066 -287.973261 241.83333892 C-293.58895073 241.75876464 -297.68243678 240.5134192 -301.88354492 236.73242188 C-303.55661532 233.29333273 -303.78054851 230.10995739 -303.00854492 226.41992188 C-301.03176316 222.89806931 -298.90983002 220.72035024 -295.00854492 219.41992188 C-292.23496685 219.32598672 -289.48687372 219.28962486 -286.71333313 219.29966736 C-285.85730741 219.29881293 -285.00128169 219.29795851 -284.1193158 219.29707819 C-281.24033012 219.29542623 -278.36140222 219.30094016 -275.48242188 219.30639648 C-273.42289227 219.30667844 -271.36336256 219.30652045 -269.30383301 219.30595398 C-263.70294085 219.30566634 -258.10206999 219.31155763 -252.50118279 219.31852794 C-246.65152102 219.32476709 -240.8018588 219.32536572 -234.95219421 219.32655334 C-223.87063323 219.329665 -212.78908208 219.33787616 -201.70752543 219.34790283 C-189.09342873 219.35906911 -176.47933157 219.36457572 -163.86523116 219.36959827 C-137.91299695 219.3800589 -111.96077149 219.39765515 -86.00854492 219.41992188 C-85.77393555 218.123125 -85.53932617 216.82632813 -85.29760742 215.49023438 C-83.73074635 207.65592901 -81.51413794 199.99020039 -79.38354492 192.29492188 C-78.95874851 190.75073828 -78.53426687 189.20646805 -78.11010742 187.66210938 C-77.07987797 183.91370537 -76.0454014 180.16649791 -75.00854492 176.41992188 C-75.89553164 176.42360905 -76.78251837 176.42729622 -77.69638348 176.43109512 C-99.27044553 176.51940053 -120.84447646 176.58560929 -142.41868114 176.62717056 C-152.8517779 176.64780308 -163.28475407 176.67593691 -173.71777344 176.72167969 C-182.81031684 176.76152628 -191.90277292 176.78734967 -200.9954012 176.79627585 C-205.81071073 176.80149429 -210.62577045 176.81377387 -215.44099998 176.8428421 C-219.97261205 176.86997677 -224.50387121 176.87837082 -229.03555679 176.8723526 C-230.69924779 176.87345371 -232.36295049 176.88141929 -234.02657127 176.89674377 C-236.29798932 176.91664198 -238.56807452 176.91186275 -240.83952332 176.90093994 C-242.11067584 176.90462711 -243.38182837 176.90831429 -244.69150066 176.91211319 C-248.59466201 176.33295236 -250.23366089 175.16921534 -253.00854492 172.41992188 C-254.61395331 169.20910509 -254.49317801 165.90281832 -254.00854492 162.41992188 C-251.00854492 156.91992188 -251.00854492 156.91992188 -248.00854492 155.41992188 C-245.66477243 155.32510479 -243.3181927 155.29802702 -240.97250366 155.29966736 C-239.87350658 155.29838572 -239.87350658 155.29838572 -238.75230753 155.29707819 C-236.28479838 155.29542441 -233.81735646 155.30094311 -231.34985352 155.30639648 C-229.58603416 155.3066784 -227.82221468 155.30652053 -226.05839539 155.30595398 C-221.25906989 155.30566619 -216.45976921 155.31155993 -211.6604495 155.31852794 C-206.64892927 155.32476456 -201.63740852 155.32536552 -196.62588501 155.32655334 C-187.13092527 155.32966575 -177.635977 155.33787791 -168.14102232 155.34790283 C-157.33344431 155.35906679 -146.52586576 155.36457514 -135.71828341 155.36959827 C-113.48169751 155.3800606 -91.24512194 155.39765828 -69.00854492 155.41992188 C-68.64067871 153.82386108 -68.64067871 153.82386108 -68.26538086 152.19555664 C-66.10124828 142.86616578 -63.78657395 133.59612024 -61.25854492 124.35742188 C-60.94272461 123.19404297 -60.6269043 122.03066406 -60.30151367 120.83203125 C-59.5397326 118.02729185 -58.77541703 115.22327266 -58.00854492 112.41992188 C-58.73484415 112.42360905 -59.46114338 112.42729622 -60.20945168 112.43109512 C-77.88665402 112.51945485 -95.56380023 112.58563568 -113.2411747 112.62717056 C-121.78985147 112.64779072 -130.33838077 112.67590079 -138.88696289 112.72167969 C-146.33842104 112.76156429 -153.78977239 112.78735867 -161.24133432 112.79627585 C-165.1864719 112.80148789 -169.13130394 112.81372639 -173.07634354 112.8428421 C-176.7913072 112.87003707 -180.50584011 112.87835878 -184.22089386 112.8723526 C-186.23082478 112.8739739 -188.24070902 112.89547534 -190.2505188 112.91760254 C-201.33113721 112.86695782 -201.33113721 112.86695782 -206.00854492 108.41992188 C-207.75203443 104.93294286 -207.58937217 101.22402125 -207.00854492 97.41992188 C-205.09481432 93.84368399 -202.91567784 91.72229951 -199.00854492 90.41992188 C-197.01710036 90.32850549 -195.02266999 90.29797935 -193.02912903 90.29966736 C-191.77971024 90.29829269 -190.53029144 90.29691803 -189.24301147 90.29550171 C-187.85601783 90.29904085 -186.46902442 90.30267566 -185.08203125 90.30639648 C-183.62347923 90.30667852 -182.16492706 90.30652031 -180.70637512 90.30595398 C-176.74385683 90.30566663 -172.7813687 90.31155334 -168.81885743 90.31852794 C-164.67885633 90.32477179 -160.53885457 90.32536609 -156.39884949 90.32655334 C-148.55784755 90.32966361 -140.71685953 90.3378729 -132.87586373 90.34790283 C-123.94972648 90.35907342 -115.02358858 90.36457681 -106.09744608 90.36959827 C-87.73447114 90.38005576 -69.37150915 90.39764932 -51.00854492 90.41992188 C-50.87610886 89.39731766 -50.74367279 88.37471344 -50.60722351 87.32112122 C-50.06556989 83.79151657 -49.33521156 80.45161741 -48.4296875 77.00073242 C-47.94832085 75.15797981 -47.94832085 75.15797981 -47.45722961 73.27799988 C-47.10639692 71.95406712 -46.75499811 70.63028426 -46.40307617 69.30664062 C-46.22392859 68.63049021 -46.044781 67.95433979 -45.8602047 67.25769997 C-44.91143015 63.67872769 -43.95751612 60.10117038 -42.99951172 56.5246582 C-42.01911791 52.86029193 -41.05703879 49.19137912 -40.09909534 45.52109051 C-39.3518893 42.67241513 -38.59073655 39.82759535 -37.82596397 36.98359108 C-37.46560964 35.63399132 -37.11036777 34.28301428 -36.76069069 32.93060875 C-34.22715837 23.15924473 -31.16879208 12.71727714 -22.63354492 6.48242188 C-21.60100586 5.69544922 -21.60100586 5.69544922 -20.54760742 4.89257812 C-13.67126704 0.9043007 -7.80155322 -0.02544726 0 0 Z " fill="#FE0033" transform="translate(335.008544921875,-0.419921875)"/>
<path d="M0 0 C11.99733966 7.84855903 20.10672113 19.8979021 23.46875 33.8515625 C27.36702006 52.80083941 26.08763143 73.95114233 15.234375 90.51953125 C14.26791455 91.84141544 13.2905385 93.15547201 12.296875 94.45703125 C11.719375 95.32328125 11.141875 96.18953125 10.546875 97.08203125 C2.51739185 105.5575968 -8.46099549 110.96721327 -20.12109375 111.66015625 C-32.12127607 111.80938132 -41.15630772 110.14407893 -50.703125 102.45703125 C-52.353125 100.80703125 -54.003125 99.15703125 -55.703125 97.45703125 C-56.033125 119.56703125 -56.363125 141.67703125 -56.703125 164.45703125 C-69.82109246 163.36386729 -81.28113379 161.25275488 -90.703125 151.45703125 C-97.8253738 141.90236825 -97.99575701 131.2412939 -97.93017578 119.76733398 C-97.92961061 118.40641793 -97.92993029 117.04550127 -97.93106079 115.68458557 C-97.93163118 112.01575966 -97.91992809 108.34706634 -97.90591288 104.67827106 C-97.89335285 100.83459835 -97.89223088 96.99092212 -97.88986206 93.14723206 C-97.88366271 85.8801462 -97.86727295 78.613121 -97.84716308 71.34606177 C-97.82475581 63.06790545 -97.81379854 54.78974613 -97.80377221 46.511567 C-97.78290524 29.49334737 -97.74624847 12.47521124 -97.703125 -4.54296875 C-84.173125 -4.54296875 -70.643125 -4.54296875 -56.703125 -4.54296875 C-56.208125 1.89203125 -56.208125 1.89203125 -55.703125 8.45703125 C-54.960625 7.42578125 -54.218125 6.39453125 -53.453125 5.33203125 C-40.92058912 -9.41918323 -15.56869833 -8.88675699 0 0 Z M-53.515625 38.6875 C-57.52889176 44.66779554 -57.39595562 51.49364505 -56.703125 58.45703125 C-55.04003821 65.56747418 -51.93033643 70.54154564 -45.703125 74.45703125 C-39.85532158 76.40629906 -33.18101008 76.23710618 -27.328125 74.39453125 C-22.33488548 70.70904494 -18.5519056 66.45284724 -16.703125 60.45703125 C-15.64762384 48.83226918 -15.64762384 48.83226918 -19.296875 38.0703125 C-24.21901531 32.42352376 -29.06073758 29.76056354 -36.453125 29.14453125 C-43.81715384 29.28140911 -49.10527633 32.99479451 -53.515625 38.6875 Z " fill="#FE0034" transform="translate(1134.703125,78.54296875)"/>
<path d="M0 0 C13.2 0 26.4 0 40 0 C40.33 16.5 40.66 33 41 50 C42.98 47.525 42.98 47.525 45 45 C54.36421326 36.8279453 66.11619403 34.24043944 78.28515625 34.6171875 C87.78587987 35.59623157 96.02993737 38.37102554 103 45 C103.68835938 45.64839844 104.37671875 46.29679687 105.0859375 46.96484375 C118.01694935 60.25638567 118.31528969 77.66102885 118.1953125 95.140625 C118.19157314 96.76015039 118.18873054 98.37967807 118.18673706 99.99920654 C118.17917316 104.22087062 118.15958873 108.44239272 118.1373291 112.66400146 C118.11671279 116.98822104 118.1077019 121.31246399 118.09765625 125.63671875 C118.0763345 134.09121032 118.04228836 142.5455874 118 151 C115.61110381 150.70784777 113.2234352 150.40867177 110.8359375 150.10546875 C110.16554443 150.02421753 109.49515137 149.94296631 108.80444336 149.85925293 C98.34537665 148.51433323 89.20156672 144.3306873 82.3984375 136.05078125 C77.58907842 128.89299245 76.71589372 121.3869548 76.7265625 112.96875 C76.7062815 111.25389963 76.68543088 109.53905592 76.6640625 107.82421875 C76.6414742 105.15830804 76.62498392 102.49266223 76.61914062 99.82666016 C76.60956634 97.22772063 76.57574878 94.6299292 76.5390625 92.03125 C76.54663071 90.85121399 76.54663071 90.85121399 76.55435181 89.64733887 C76.45545461 84.02228866 75.13475737 79.707597 72 75 C66.697776 70.07650629 63.13428026 69.64173018 56.05078125 69.7265625 C51.51948232 70.13269685 49.54440793 71.12016855 46 74 C41.78115068 79.57768115 40.88585145 84.68769166 40.79467773 91.51269531 C40.78477814 92.15701508 40.77487854 92.80133484 40.76467896 93.46517944 C40.73319571 95.58612445 40.70835897 97.70709181 40.68359375 99.828125 C40.66301282 101.30215015 40.64201605 102.77616955 40.62062073 104.25018311 C40.5655176 108.12332491 40.51605666 111.99651895 40.46777344 115.86975098 C40.40862313 120.52044364 40.34246006 125.1710412 40.27747345 129.82165527 C40.17961192 136.88104526 40.09065482 143.94049722 40 151 C26.8 151 13.6 151 0 151 C0 101.17 0 51.34 0 0 Z " fill="#FE0034" transform="translate(770,38)"/>
<path d="M0 0 C10.89 0 21.78 0 33 0 C34.57195155 7.72195682 36.14034484 15.444461 37.69970703 23.16894531 C38.23049793 25.79613722 38.76416053 28.4227212 39.30029297 31.04882812 C40.07024572 34.82573921 40.83271421 38.60409592 41.59375 42.3828125 C41.83436157 43.55490265 42.07497314 44.7269928 42.32287598 45.93460083 C42.54310425 47.035289 42.76333252 48.13597717 42.99023438 49.27001953 C43.18564819 50.23376495 43.38106201 51.19751038 43.58239746 52.19046021 C44.02460085 55.1655092 44.07174533 57.99665295 44 61 C44.66 61 45.32 61 46 61 C46.15650024 59.40285156 46.15650024 59.40285156 46.31616211 57.7734375 C47.04838488 51.94821629 48.5207541 46.31386032 49.94140625 40.625 C50.22853989 39.4599292 50.51567352 38.2948584 50.81150818 37.09448242 C51.72422803 33.39524906 52.6432674 29.69761976 53.5625 26 C54.18466346 23.48317638 54.80641277 20.96625033 55.42773438 18.44921875 C56.94625941 12.29807729 58.47332969 6.14914772 60 0 C70.56 0 81.12 0 92 0 C96.58088137 17.17830515 96.58088137 17.17830515 98.54296875 25.58203125 C98.98111591 27.43815196 99.41926706 29.29427172 99.85742188 31.15039062 C100.5295429 34.0096941 101.2008047 36.86919806 101.87182617 39.72875977 C102.53101297 42.53449893 103.1931282 45.33953521 103.85546875 48.14453125 C104.05649704 49.00585159 104.25752533 49.86717194 104.46464539 50.7545929 C105.41033734 54.98688028 105.41033734 54.98688028 107 59 C110.96 39.53 114.92 20.06 119 0 C129.89 0 140.78 0 152 0 C145.8219679 25.0655328 139.46379952 50.08024572 132.91812134 75.0520668 C132.3738942 77.12922053 131.83053228 79.206599 131.28735352 81.2840271 C130.26501978 85.19278396 129.23838784 89.10039739 128.2109375 93.0078125 C127.90098846 94.19229477 127.59103943 95.37677704 127.271698 96.59715271 C126.98658356 97.67771439 126.70146912 98.75827606 126.40771484 99.87158203 C126.15887543 100.81808624 125.91003601 101.76459045 125.65365601 102.73977661 C125 105 125 105 124 107 C112.78 107 101.56 107 90 107 C88.59027395 103.47568488 87.53528293 100.47273146 86.67138672 96.8425293 C86.43128876 95.84186935 86.1911908 94.84120941 85.94381714 93.81022644 C85.69165436 92.7423439 85.43949158 91.67446136 85.1796875 90.57421875 C84.91616486 89.47149124 84.65264221 88.36876373 84.38113403 87.23262024 C83.54219516 83.7184179 82.70853223 80.20298823 81.875 76.6875 C81.30633719 74.30134942 80.73733079 71.9152807 80.16796875 69.52929688 C78.77466091 63.68714108 77.38568002 57.84396942 76 52 C75.82682755 52.6742955 75.65365509 53.348591 75.47523499 54.0433197 C73.67880762 61.03540687 71.87757191 68.02624239 70.07348633 75.01635742 C69.39964817 77.62824369 68.72754337 80.24056703 68.05688477 82.85327148 C67.09454771 86.599639 66.12780322 90.34484473 65.16015625 94.08984375 C64.85908463 95.26586655 64.558013 96.44188934 64.24781799 97.65354919 C63.967603 98.73459427 63.687388 99.81563934 63.39868164 100.92944336 C63.15219376 101.88652695 62.90570587 102.84361053 62.65174866 103.82969666 C62 106 62 106 61 107 C58.47905924 107.08847743 55.98569107 107.11527301 53.46484375 107.09765625 C52.33496788 107.09553383 52.33496788 107.09553383 51.18226624 107.09336853 C48.7673044 107.08775376 46.35243399 107.07519883 43.9375 107.0625 C42.30403779 107.0574869 40.67057414 107.05292366 39.03710938 107.04882812 C35.02470415 107.03777954 31.01236759 107.02050506 27 107 C24.65806077 97.92225509 22.31881359 88.84382133 19.98262024 79.76459599 C18.89669683 75.54465278 17.80998764 71.32491587 16.72119141 67.10571289 C10.96042275 44.77917639 5.38259772 22.42126064 0 0 Z " fill="#000000" transform="translate(333,277)"/>
<path d="M0 0 C3.88142232 2.74107744 6.94450417 5.66617258 9.703125 9.57421875 C13.90196 8.94349246 17.2296258 7.50828065 21.02734375 5.6328125 C21.61481888 5.34567886 22.20229401 5.05854523 22.80757141 4.76271057 C24.67132899 3.85117273 26.53123922 2.9321376 28.390625 2.01171875 C30.26103219 1.08840792 32.13222036 0.16684484 34.0058136 -0.74998474 C35.69827503 -1.57848163 37.38766936 -2.41323526 39.0769043 -3.24829102 C41.703125 -4.42578125 41.703125 -4.42578125 43.703125 -4.42578125 C43.703125 33.19421875 43.703125 70.81421875 43.703125 109.57421875 C39.26184488 108.68596273 36.31934996 107.5906698 32.30859375 105.6328125 C31.71637527 105.34567886 31.1241568 105.05854523 30.51399231 104.76271057 C28.63686806 103.85107876 26.76374397 102.93154751 24.890625 102.01171875 C23.6128868 101.38944681 22.33489446 100.76769643 21.05664062 100.14648438 C17.93583828 98.62842032 14.81857107 97.10325064 11.703125 95.57421875 C10.91776367 96.36497803 10.13240234 97.1557373 9.32324219 97.97045898 C-0.40510203 107.63806904 -10.59660643 111.87379504 -24.28613281 111.88891602 C-36.65423406 111.63708359 -48.06287941 106.81792461 -56.8046875 98.0625 C-66.43763303 86.91943925 -71.49135324 73.24447869 -72.296875 58.57421875 C-72.34972656 57.70667969 -72.40257812 56.83914062 -72.45703125 55.9453125 C-73.04868294 37.03818248 -68.05320441 20.352099 -55.19921875 6.27734375 C-41.15074789 -7.28669708 -16.69489637 -10.36332853 0 0 Z M-26.296875 37.57421875 C-31.27036493 44.27055159 -31.04130367 51.51742744 -30.296875 59.57421875 C-29.24974154 65.90785124 -26.08717347 69.19175468 -21.234375 73.2265625 C-16.2614098 76.68558063 -10.09169278 76.10785307 -4.296875 75.57421875 C1.11348575 73.86824914 4.54122427 70.09121979 7.703125 65.57421875 C10.61224239 58.29125353 10.99103927 49.75671619 8.703125 42.19921875 C6.25786779 36.70321206 1.29775154 33.06612901 -3.796875 30.13671875 C-12.88158025 28.09266007 -20.28983894 30.26836408 -26.296875 37.57421875 Z " fill="#FE0034" transform="translate(405.296875,78.42578125)"/>
<path d="M0 0 C12.55185614 9.44895315 20.75189183 22.26324278 23 38 C24.10869794 56.70872566 21.62201122 74.1369077 9.1875 88.9375 C-3.1421314 101.66867112 -19.21154239 107.06943654 -36.625 107.375 C-53.41896207 107.34527617 -69.43284712 102.26398172 -81.74609375 90.484375 C-93.5668765 77.45488136 -97.79753419 61.48331701 -97.3125 44.1953125 C-96.40743648 28.0323864 -89.75786514 14.11225857 -78 3 C-56.11348064 -14.79011199 -23.23346621 -15.03170238 0 0 Z M-51.9375 32.5 C-56.55574609 39.38823146 -55.8768043 49.02750576 -55 57 C-53.49506996 62.31266251 -51.27222574 65.81451692 -47.25 69.5625 C-41.68017021 72.02607856 -36.6149217 72.81153075 -30.75 70.875 C-24.72590025 68.22822854 -21.53958922 63.96803466 -19 58 C-16.60407591 50.08013981 -17.39285526 41.40186101 -21 34 C-23.75120455 29.54148766 -27.02235336 26.72303153 -32 25 C-40.05572281 23.78714954 -46.96451088 25.87409759 -51.9375 32.5 Z " fill="#FE0034" transform="translate(999,83)"/>
<path d="M0 0 C1.32451172 0.61875 1.32451172 0.61875 2.67578125 1.25 C12.64332826 6.57409188 18.98100384 14.55654436 23.125 24.9453125 C24.18288525 28.63846549 24.55390012 32.1841829 25 36 C19.82241114 36.19815605 14.64703814 36.34309889 9.46655273 36.43945312 C7.70574497 36.47962241 5.94520306 36.53417284 4.18530273 36.60351562 C-10.5590085 37.16980377 -10.5590085 37.16980377 -14.15087891 34.25390625 C-15.42578125 32.09375 -15.42578125 32.09375 -16.17700195 29.92773438 C-16.85585407 27.83389304 -16.85585407 27.83389304 -18.94604492 26.76513672 C-22.87130173 25.30290507 -26.8886924 25.4477348 -31 26 C-33.8017483 27.4631891 -33.8017483 27.4631891 -35 30 C-34.95657821 32.5532457 -34.95657821 32.5532457 -34 35 C-32.1651981 36.36038448 -32.1651981 36.36038448 -29.75 37.09765625 C-28.39068359 37.57936279 -28.39068359 37.57936279 -27.00390625 38.07080078 C-20.60948374 40.04878941 -14.12984641 41.66593113 -7.6328125 43.26757812 C4.70326602 46.43867596 14.74448888 50.67924072 21.70703125 61.72265625 C25.97503816 69.24002189 26.21061656 78.36128932 24.41796875 86.7109375 C21.25007256 95.88192464 14.736656 102.89107714 6.25 107.4375 C-9.83314735 114.57882203 -29.23470192 115.62606524 -46 110 C-60.20051819 104.39046938 -69.60568115 97.24893198 -76 83 C-77.36252449 79.09785887 -77 76.52315947 -77 72 C-64.13 72 -51.26 72 -38 72 C-36.68 74.64 -35.36 77.28 -34 80 C-28.93320686 83.11802655 -24.77466333 83.55883839 -19 83 C-15.96175425 82.07979268 -15.96175425 82.07979268 -14 80 C-13.58253392 76.87364791 -13.58253392 76.87364791 -14 74 C-20.40263831 70.44297871 -26.57115607 68.68208558 -33.6875 67.0625 C-62.42032302 60.11732149 -62.42032302 60.11732149 -70.50390625 47.6875 C-74.51582515 39.18838261 -74.28382542 29.11625378 -71.5625 20.25 C-67.31947168 10.08472366 -59.1550082 3.09709641 -49.265625 -1.18359375 C-34.43791659 -6.40945684 -14.36392456 -6.78944736 0 0 Z " fill="#FE0034" transform="translate(726,77)"/>
<path d="M0 0 C10.56 0 21.12 0 32 0 C32.33 14.52 32.66 29.04 33 44 C35.97 41.69 38.94 39.38 42 37 C52.84075217 31.50735223 65.3116798 30.33838117 77 34 C87.67770037 38.64615127 94.5099404 45.68067188 99.0078125 56.40234375 C101.372416 63.11735854 102.1271791 69.73968984 102.11352539 76.85327148 C102.11367142 77.49802933 102.11381744 78.14278717 102.1139679 78.80708313 C102.11327817 80.91178907 102.10553042 83.01640351 102.09765625 85.12109375 C102.09578872 86.59082491 102.0943664 88.06055669 102.09336853 89.5302887 C102.0895697 93.37879181 102.07976221 97.22725656 102.06866455 101.07574463 C102.0583935 105.0107776 102.05385876 108.94581683 102.04882812 112.88085938 C102.03813732 120.58725698 102.02109292 128.29362309 102 136 C100.39385376 135.85211234 98.78803877 135.70062403 97.18237305 135.54760742 C95.84096504 135.42164436 95.84096504 135.42164436 94.47245789 135.2931366 C86.95358964 134.40169353 79.92997818 130.75601175 75 125 C71.01016935 118.5895099 69.85653395 112.96530037 69.7890625 105.45703125 C69.76097968 103.72590223 69.73231513 101.99478257 69.703125 100.26367188 C69.66199379 97.54289149 69.62509514 94.82228311 69.59863281 92.10131836 C69.57083639 89.46952435 69.52495339 86.83851686 69.4765625 84.20703125 C69.47330963 83.4046553 69.47005676 82.60227936 69.46670532 81.77558899 C69.32195829 75.04326813 67.99353694 69.5472972 63.75 64.125 C59.04500337 60.48932079 54.75762292 59.77544307 48.9375 60.125 C42.87223169 60.92572586 39.43757698 63.13503527 35.6875 68 C33.1748006 72.46702115 32.86845153 75.9527802 32.79467773 81.05371094 C32.77473251 82.27467468 32.75478729 83.49563843 32.73423767 84.75360107 C32.70916893 86.72408417 32.70916893 86.72408417 32.68359375 88.734375 C32.66301081 90.09629936 32.64201399 91.45821752 32.62062073 92.82012939 C32.56553835 96.39734872 32.51606836 99.97462438 32.46777344 103.55194092 C32.41745711 107.20525085 32.36187528 110.85848042 32.30664062 114.51171875 C32.19873186 121.67441727 32.0996016 128.83716184 32 136 C21.44 136 10.88 136 0 136 C0 91.12 0 46.24 0 0 Z " fill="#000000" transform="translate(500,245)"/>
<path d="M0 0 C11.34493122 9.09685729 16.93585587 20.8161413 19 35 C20.03923948 46.92152104 20.03923948 46.92152104 18 51 C-5.1 51 -28.2 51 -52 51 C-48.53992326 61.8911669 -48.53992326 61.8911669 -40.75 68.3125 C-33.99981386 70.00004653 -28.10099678 69.51980584 -22 66 C-21.26692627 64.98341309 -20.53385254 63.96682617 -19.77856445 62.91943359 C-17.5588223 60.17790364 -17.14116302 60.02673215 -13.40307617 59.31884766 C-12.03267311 59.3197882 -10.66201776 59.35315073 -9.29296875 59.4140625 C-8.56757401 59.42255219 -7.84217926 59.43104187 -7.09480286 59.43978882 C-4.79082043 59.47322599 -2.49041348 59.54846886 -0.1875 59.625 C1.37950652 59.65511295 2.94656824 59.68248645 4.51367188 59.70703125 C8.34381356 59.772983 12.17130191 59.87642206 16 60 C14.70227758 70.38177932 9.28201538 79.50103421 1 86 C-12.81679032 95.7016398 -27.96526447 97.73600315 -44.4609375 95.5390625 C-57.30753369 92.67302398 -68.35407191 85.71836006 -75.75 74.8125 C-84.69464644 59.96602064 -86.01548716 43.08372533 -82.03515625 26.421875 C-78.22530401 13.8277974 -71.24915463 3.71399564 -59.65234375 -2.71875 C-40.27698401 -12.07827577 -18.34985086 -11.62411023 0 0 Z M-48.375 23.3125 C-50.48401405 26.53501235 -50.48401405 26.53501235 -52 33 C-39.46 33 -26.92 33 -14 33 C-14.99023436 26.06835949 -15.23248042 24.56023612 -20 20 C-29.4342349 14.33945906 -40.54426466 15.68783664 -48.375 23.3125 Z " fill="#000000" transform="translate(1259,286)"/>
<path d="M0 0 C9.80364053 7.61570359 16.8852886 18.80249778 18.796875 31.20703125 C19.25156558 37.4590267 19.32391319 43.74018922 19 50 C18 51 18 51 15.22227478 51.12025452 C13.98095291 51.11803391 12.73963104 51.11581329 11.46069336 51.11352539 C10.77779739 51.11367142 10.09490143 51.11381744 9.39131165 51.1139679 C7.12412386 51.11326876 4.85701726 51.1054764 2.58984375 51.09765625 C1.02185613 51.09579207 -0.54613207 51.09436817 -2.11412048 51.09336853 C-6.24876503 51.08954334 -10.38337466 51.07971306 -14.51800537 51.06866455 C-18.73400398 51.05845044 -22.95000822 51.05387091 -27.16601562 51.04882812 C-35.44402647 51.03809079 -43.7220089 51.02101436 -52 51 C-51.39148844 52.77208052 -50.77383869 54.54102487 -50.15234375 56.30859375 C-49.80937256 57.29400146 -49.46640137 58.27940918 -49.11303711 59.29467773 C-47.32482964 63.64105346 -44.77102931 65.93738241 -40.8125 68.3125 C-35.31294524 69.65683561 -30.06010929 69.69965976 -24.6875 67.875 C-21.79951128 66.08683614 -21.79951128 66.08683614 -19.82739258 62.91943359 C-17.5592981 60.15137068 -17.11335312 60.02093158 -13.3112793 59.31884766 C-11.89856953 59.3197887 -10.48561631 59.35317989 -9.07421875 59.4140625 C-7.95283257 59.42679703 -7.95283257 59.42679703 -6.80879211 59.43978882 C-4.43352812 59.47323471 -2.06172781 59.54848186 0.3125 59.625 C1.92768514 59.6551117 3.54292381 59.68248542 5.15820312 59.70703125 C9.10679239 59.77299499 13.05281015 59.87644241 17 60 C16.3949216 61.73763678 15.78286486 63.47284435 15.16796875 65.20703125 C14.82789795 66.17358643 14.48782715 67.1401416 14.13745117 68.13598633 C9.44911135 79.94086173 0.20295017 87.59218589 -11.1171875 92.8125 C-23.76718461 98.02333892 -40.24342512 97.84058334 -53 93 C-65.82597208 87.28802863 -75.12909693 78.95877789 -80.2890625 65.68359375 C-82.17930123 59.81569438 -83.58999238 54.15011423 -84 48 C-84.07734375 47.04867187 -84.07734375 47.04867187 -84.15625 46.078125 C-84.79387305 31.94414731 -80.63790307 17.7562909 -71.8125 6.6875 C-53.34917001 -12.83087742 -21.92062469 -13.97106121 0 0 Z M-49 25 C-50.9807081 28.1125413 -51 29.09879637 -51 33 C-38.79 33 -26.58 33 -14 33 C-14.99023436 26.06835949 -15.23248042 24.56023612 -20 20 C-30.28406716 13.82955971 -41.24325347 16.16592756 -49 25 Z " fill="#000000" transform="translate(869,286)"/>
<path d="M0 0 C9.3111644 7.32035865 15.50637385 19.16455981 17.94140625 30.62890625 C19.35192013 49.55508416 16.68906199 63.23639395 5.69140625 78.81640625 C-4.520158 89.26005151 -17.86378903 94.61941785 -32.37695312 94.87036133 C-48.56102006 94.93031501 -61.75525726 91.47036529 -73.734375 80.07421875 C-84.54899009 68.69615313 -88.46328886 55.45748426 -88.26953125 39.9375 C-87.29184277 24.60227519 -81.68202409 10.90160156 -70.05859375 0.62890625 C-48.89879878 -14.32401553 -21.55102441 -14.35371834 0 0 Z M-49.84765625 23.7578125 C-55.6112183 32.04805459 -55.76283777 39.73930805 -55.05859375 49.62890625 C-53.64486408 56.16101864 -50.98178942 60.45098181 -45.7421875 64.5703125 C-40.77742497 67.69200773 -34.68353249 67.26340504 -29.05859375 66.62890625 C-22.36245633 64.03024423 -18.4287257 59.41810343 -15.30859375 53.06640625 C-12.72631462 45.54658242 -13.16336877 37.04243425 -16.015625 29.6640625 C-18.39847884 25.01437392 -21.53228144 21.72927094 -25.74609375 18.69140625 C-34.36220907 15.92774662 -43.76888813 16.52434389 -49.84765625 23.7578125 Z " fill="#000000" transform="translate(704.05859375,287.37109375)"/>
<path d="M0 0 C3.72809003 2.77369898 6.4019852 4.9857601 8.25390625 9.31640625 C15.20827202 5.57911914 22.05231841 1.70279582 28.8203125 -2.36328125 C31.25390625 -3.68359375 31.25390625 -3.68359375 33.25390625 -3.68359375 C33.25390625 29.97640625 33.25390625 63.63640625 33.25390625 98.31640625 C28.63390625 95.67640625 24.01390625 93.03640625 19.25390625 90.31640625 C15.59197799 88.30593583 11.93130874 86.29770065 8.25390625 84.31640625 C7.98707031 84.91453125 7.72023438 85.51265625 7.4453125 86.12890625 C3.93663766 92.57106333 -3.04715878 96.00846929 -9.74609375 98.31640625 C-21.87512072 101.39452906 -34.14627114 99.62415198 -44.93359375 93.56640625 C-56.47883533 86.1947966 -62.59257082 76.12095536 -65.9921875 62.94921875 C-69.67170927 45.21888068 -67.51884005 28.09377313 -57.99609375 12.56640625 C-51.22563068 3.08088438 -42.58336028 -2.51596234 -31.26171875 -5.29296875 C-20.4222615 -6.97611429 -9.46743581 -5.80435965 0 0 Z M-29.67578125 29.51171875 C-34.83105798 36.98563669 -35.36791273 43.32829557 -34.74609375 52.31640625 C-33.44558219 59.06472999 -30.7079727 64.41945148 -25.03125 68.5703125 C-19.50314627 71.81482328 -14.02701923 72.20582198 -7.74609375 71.31640625 C-1.63732974 69.53950243 2.91249146 65.70097912 6.25390625 60.31640625 C9.32746374 52.81734846 9.60549961 44.12556401 7.4140625 36.328125 C4.75465819 30.42729188 0.96224351 26.39187225 -4.74609375 23.31640625 C-13.78086716 20.45864885 -23.2711124 22.22543556 -29.67578125 29.51171875 Z " fill="#000000" transform="translate(1065.74609375,282.68359375)"/>
<path d="M0 0 C7.86783627 7.17793271 10.53984856 14.85394477 11.84375 25.28515625 C1.94375 25.28515625 -7.95625 25.28515625 -18.15625 25.28515625 C-19.14625 23.30515625 -20.13625 21.32515625 -21.15625 19.28515625 C-24.58792157 16.18031055 -27.17183659 15.03120553 -31.71875 14.91015625 C-36.71040218 15.17897768 -36.71040218 15.17897768 -41.15625 17.28515625 C-42.40954784 20.13805323 -42.40954784 20.13805323 -42.15625 23.28515625 C-39.32658896 26.85415866 -36.73860143 28.02961023 -32.40625 29.22265625 C-31.25769531 29.55394531 -30.10914063 29.88523437 -28.92578125 30.2265625 C-27.05986328 30.75056641 -27.05986328 30.75056641 -25.15625 31.28515625 C2.54978089 39.22367042 2.54978089 39.22367042 8.84375 49.28515625 C12.84115038 56.59075005 13.92197415 64.91873096 11.75 72.9921875 C7.69669686 83.24774329 0.76684864 88.22522315 -8.984375 92.53515625 C-21.50253958 97.15724779 -37.73227038 97.40545889 -50.15625 92.28515625 C-51.16042969 91.87136719 -52.16460938 91.45757812 -53.19921875 91.03125 C-63.13695511 86.50062982 -69.37839151 80.74106211 -74.24609375 70.97265625 C-75.15625 68.28515625 -75.15625 68.28515625 -76.15625 60.28515625 C-65.59625 60.28515625 -55.03625 60.28515625 -44.15625 60.28515625 C-43.16625 62.26515625 -42.17625 64.24515625 -41.15625 66.28515625 C-39.11568261 68.75084185 -38.28651076 69.241736 -35.15625 70.28515625 C-33.18060647 70.42964776 -31.19945239 70.50577624 -29.21875 70.53515625 C-28.17847656 70.5609375 -27.13820313 70.58671875 -26.06640625 70.61328125 C-22.78705034 70.24352837 -21.42445879 69.66163276 -19.15625 67.28515625 C-18.82244186 63.65951811 -18.82244186 63.65951811 -19.15625 60.28515625 C-27.06784406 56.38351372 -35.21402561 54.24269667 -43.7421875 52.10546875 C-53.06153767 49.63858194 -62.94628108 46.20167625 -69.0078125 38.265625 C-73.56362848 30.40916684 -74.20818799 22.09872217 -72.21875 13.41015625 C-69.3520787 4.78359909 -63.05992732 -1.05607612 -55.15625 -5.21484375 C-37.63052938 -12.99916633 -15.36645139 -12.2207829 0 0 Z " fill="#000000" transform="translate(974.15625,286.71484375)"/>
<path d="M0 0 C13.2 0 26.4 0 40 0 C40 49.83 40 99.66 40 151 C25.47357695 148.92479671 14.81541658 146.93836678 5 136 C1.21615834 130.80772838 -0.12662481 126.11830689 -0.12025452 119.77349854 C-0.12162918 118.71623062 -0.12300385 117.65896271 -0.12442017 116.56965637 C-0.12082489 115.41519516 -0.11722961 114.26073395 -0.11352539 113.07128906 C-0.11367142 111.85150864 -0.11381744 110.63172821 -0.1139679 109.37498474 C-0.1133908 106.03439478 -0.10837708 102.6938667 -0.10139394 99.3532877 C-0.09514071 95.86058802 -0.09455504 92.36788751 -0.09336853 88.87518311 C-0.09026103 82.26314728 -0.08205545 75.651128 -0.07201904 69.03909945 C-0.06083988 61.51073626 -0.05534291 53.98237228 -0.05032361 46.45400286 C-0.03987237 30.96932403 -0.02153409 15.48466799 0 0 Z " fill="#FE0033" transform="translate(478,38)"/>
<path d="M0 0 C13.2 0 26.4 0 40 0 C40 49.83 40 99.66 40 151 C26.76766056 149.10966579 14.94894474 147.41972038 6 137 C1.98073018 131.06152884 -0.127535 126.00457584 -0.12025452 118.8114624 C-0.12162918 117.76260864 -0.12300385 116.71375488 -0.12442017 115.63311768 C-0.12082489 114.4880072 -0.11722961 113.34289673 -0.11352539 112.16308594 C-0.11367142 110.95305908 -0.11381744 109.74303223 -0.1139679 108.49633789 C-0.11339082 105.18260638 -0.10837727 101.86893726 -0.10139394 98.55521679 C-0.09514051 95.09054435 -0.09455502 91.62587106 -0.09336853 88.16119385 C-0.09026109 81.60228191 -0.0820556 75.04338665 -0.07201904 68.48448205 C-0.06083969 61.01657722 -0.05534286 53.54867159 -0.05032361 46.08076048 C-0.0398725 30.72049568 -0.0215343 15.36025386 0 0 Z " fill="#FE0034" transform="translate(540,38)"/>
<path d="M0 0 C10.56 0 21.12 0 32 0 C32 44.88 32 89.76 32 136 C21.567915 134.84087944 12.16360747 133.21765326 5 125 C1.39470024 119.91729911 -0.12705626 115.36708166 -0.12025452 109.19110107 C-0.12162918 108.22638885 -0.12300385 107.26167664 -0.12442017 106.26773071 C-0.12082489 105.21612762 -0.11722961 104.16452454 -0.11352539 103.08105469 C-0.11367142 101.96856354 -0.11381744 100.85607239 -0.1139679 99.70986938 C-0.1132709 96.03051813 -0.10548839 92.35121742 -0.09765625 88.671875 C-0.09579132 86.12168404 -0.09436777 83.57149272 -0.09336853 81.02130127 C-0.08993972 74.99362671 -0.08205717 68.96597386 -0.07201904 62.938308 C-0.06083762 56.0749868 -0.05534234 49.21166474 -0.05032361 42.3483367 C-0.03987401 28.23221257 -0.02153665 14.11611134 0 0 Z " fill="#000000" transform="translate(1128,245)"/>
<path d="M0 0 C10.56 0 21.12 0 32 0 C32 44.88 32 89.76 32 136 C21.61302416 134.84589157 12.55641829 132.64367485 5 125 C1.50113458 119.74663105 -0.12724989 114.52490117 -0.12025452 108.22906494 C-0.12162918 107.27276688 -0.12300385 106.31646881 -0.12442017 105.33119202 C-0.12082489 104.28893967 -0.11722961 103.24668732 -0.11352539 102.17285156 C-0.11367142 101.07011398 -0.11381744 99.9673764 -0.1139679 98.83122253 C-0.11327093 95.18433672 -0.10548857 91.5375019 -0.09765625 87.890625 C-0.0957913 85.36285429 -0.09436776 82.83508321 -0.09336853 80.30731201 C-0.0899398 74.33276131 -0.08205734 68.35823252 -0.07201904 62.3836906 C-0.06083739 55.58082776 -0.05534228 48.77796405 -0.05032361 41.97509432 C-0.03987418 27.98338421 -0.0215369 13.99169721 0 0 Z " fill="#000000" transform="translate(738,245)"/>
<path d="M0 0 C7.4601964 6.33116285 11.24144671 14.72052557 12.0390625 24.375 C12.0390625 33.92703445 8.78927709 42.07239756 2.2890625 48.98046875 C-5.7549764 56.6335824 -14.16097132 58.20441133 -24.9375 58.0078125 C-29.96042264 57.77421522 -33.73393686 56.44117056 -37.9609375 53.73046875 C-39.00314453 53.11171875 -39.00314453 53.11171875 -40.06640625 52.48046875 C-47.03584937 47.8777596 -51.34880756 41.12948364 -53.3359375 33.04296875 C-54.95680842 23.48484331 -53.37585627 15.23887952 -48.2734375 6.98046875 C-43.07539558 -0.30193652 -36.05589266 -4.55044133 -27.5234375 -6.95703125 C-17.1936673 -8.21675932 -8.50618575 -6.08658168 0 0 Z M-30.9609375 19.73046875 C-32.49308638 22.79476651 -32.19032298 25.34703295 -31.9609375 28.73046875 C-30.17051652 32.87670682 -28.08862514 34.90660677 -23.9609375 36.73046875 C-19.97844753 37.32360555 -18.28452821 36.9047099 -14.7109375 34.98046875 C-12.04411132 32.79852006 -11.16445135 31.83576156 -9.9609375 28.73046875 C-9.53225241 23.73807367 -10.29516022 20.5261538 -13.5234375 16.66796875 C-20.73232918 12.60477526 -25.35979621 13.99271426 -30.9609375 19.73046875 Z " fill="#000000" transform="translate(227.9609375,334.26953125)"/>
<path d="M0 0 C6.62608748 5.63598246 10.7019274 13.16171448 12.0390625 21.734375 C12.22752518 32.00559133 9.86931577 39.84265537 3.7265625 48.046875 C-2.55634658 54.32978408 -9.72395491 57.91302692 -18.72070312 58.11499023 C-29.48866886 58.08553457 -36.2272224 56.00031856 -44.171875 48.59375 C-50.80904769 41.69572773 -53.79486075 34.33663074 -53.9609375 24.734375 C-53.32857163 15.12241381 -49.76425514 6.96219184 -42.6484375 0.359375 C-29.54748543 -9.89480699 -13.32894534 -9.51394685 0 0 Z M-30.9609375 19.734375 C-32.01907871 22.81260398 -32.30841614 25.49883622 -31.9609375 28.734375 C-30.35513705 32.00545 -29.01463968 33.96166007 -26.0859375 36.109375 C-23.14984922 36.97293038 -21.01578824 37.10095709 -17.9609375 36.734375 C-14.3031157 34.69443592 -12.29147576 33.23018238 -9.9609375 29.734375 C-9.30734513 24.60501786 -9.30734513 24.60501786 -11.01171875 19.9140625 C-14.13249557 16.10284832 -15.8302163 14.84744712 -20.7109375 14.359375 C-25.51232145 14.45557759 -27.8432742 16.00838716 -30.9609375 19.734375 Z " fill="#000000" transform="translate(63.9609375,334.265625)"/>
</svg>
